<?xml version="1.0" encoding="UTF-8" standalone="no"?>
<!DOCTYPE svg PUBLIC "-//W3C//DTD SVG 1.1//EN" "http://www.w3.org/Graphics/SVG/1.1/DTD/svg11.dtd">
<svg width="100%" height="100%" viewBox="0 0 1024 1024" version="1.1" xmlns="http://www.w3.org/2000/svg" xmlns:xlink="http://www.w3.org/1999/xlink" xml:space="preserve" xmlns:serif="http://www.serif.com/" style="fill-rule:evenodd;clip-rule:evenodd;stroke-linejoin:round;stroke-miterlimit:2;">
    <g id="Edit-Your-Icon-Here" serif:id="Edit Your Icon Here" transform="matrix(1.68396,0,0,1.68396,2033.59,331.897)">
        <rect x="-1207.62" y="-197.093" width="608.091" height="608.091" style="fill:none;"/>
        <g>
            <g transform="matrix(0.593839,0,0,0.593839,-1207.62,-197.093)">
                <rect x="0" y="0" width="1024" height="1024" style="fill:rgb(255,80,0);"/>
            </g>
            <g id="XMLID_835_" transform="matrix(1.13284,0,0,1.25404,-1148.53,-164.207)">
                <path d="M322.743,106.629C319.965,102.111 317.012,97.74 313.87,93.549C288.093,59.174 253.417,40.242 216.229,40.242C179.041,40.242 144.365,59.174 118.588,93.549C115.445,97.74 112.493,102.111 109.714,106.629C129.775,138.602 169.989,160.479 216.228,160.479C262.469,160.479 302.683,138.602 322.743,106.629Z" style="fill:white;fill-rule:nonzero;stroke:black;stroke-width:0.5px;"/>
            </g>
            <g id="XMLID_1453_" transform="matrix(1.13284,0,0,1.25404,-1148.53,-164.207)">
                <path d="M417.458,201.755L351.852,201.755C351.044,189.188 349.227,176.885 346.446,165.013L398.021,113.437C403.879,107.579 403.879,98.082 398.021,92.224C392.164,86.366 382.666,86.366 376.808,92.224L350.842,118.19C343.494,131.035 333.64,142.864 321.477,153.218C296.84,174.19 265.231,186.936 231.229,189.839L231.229,392.215C262.672,387.825 291.594,369.665 313.87,339.96C317.777,334.75 321.406,329.273 324.751,323.565L376.809,375.623C379.738,378.552 383.577,380.016 387.416,380.016C391.254,380.016 395.094,378.551 398.022,375.623C403.88,369.765 403.88,360.268 398.022,354.41L338.443,294.83C345.87,275.236 350.429,253.903 351.853,231.754L417.459,231.754C425.743,231.754 432.459,225.038 432.459,216.754C432.458,208.471 425.742,201.755 417.458,201.755Z" style="fill:white;fill-rule:nonzero;stroke:black;stroke-width:0.5px;"/>
            </g>
            <g id="XMLID_1457_" transform="matrix(1.13284,0,0,1.25404,-1148.53,-164.207)">
                <path d="M201.23,189.84C167.227,186.937 135.618,174.191 110.981,153.219C98.818,142.865 88.964,131.036 81.616,118.191L55.65,92.224C49.792,86.366 40.294,86.366 34.437,92.224C28.579,98.082 28.579,107.579 34.437,113.437L86.012,165.012C83.232,176.885 81.414,189.187 80.606,201.754L15,201.754C6.716,201.754 0,208.47 0,216.754C0,225.038 6.716,231.754 15,231.754L80.606,231.754C82.03,253.903 86.589,275.236 94.016,294.83L34.437,354.409C28.579,360.267 28.579,369.764 34.437,375.622C40.294,381.48 49.792,381.48 55.65,375.622L107.708,323.564C111.053,329.272 114.682,334.749 118.589,339.959C140.863,369.664 169.786,387.825 201.23,392.214L201.23,189.84Z" style="fill:white;fill-rule:nonzero;stroke:black;stroke-width:0.5px;"/>
            </g>
        </g>
    </g>
    <g id="Grid">
    </g>
</svg>
